<?xml version="1.0" standalone="no"?>
<!DOCTYPE svg PUBLIC "-//W3C//DTD SVG 20010904//EN"
 "http://www.w3.org/TR/2001/REC-SVG-20010904/DTD/svg10.dtd">
<svg version="1.0" xmlns="http://www.w3.org/2000/svg"
 width="293.000000pt" height="253.000000pt" viewBox="0 0 293.000000 253.000000"
 preserveAspectRatio="xMidYMid meet">

<g transform="translate(0.000000,253.000000) scale(0.100000,-0.100000)"
fill="#000000" stroke="none">
<path d="M1150 2054 c-11 -12 -10 -18 3 -32 16 -15 18 -15 34 0 13 14 14 20 3
32 -7 9 -16 16 -20 16 -4 0 -13 -7 -20 -16z"/>
<path d="M1634 1775 c21 -7 43 -18 49 -24 6 -6 20 -10 32 -10 17 1 17 2 2 6
-9 2 -14 9 -11 15 4 7 2 8 -5 4 -6 -4 -18 0 -27 8 -8 9 -30 16 -47 16 l-32 -1
39 -14z"/>
<path d="M1415 1679 c-38 -28 -81 -58 -95 -67 -47 -31 -62 -55 -56 -87 8 -37
125 -275 136 -275 5 0 20 -20 34 -44 27 -46 70 -81 87 -70 7 4 1 16 -14 33
-66 72 -97 154 -97 258 0 57 -3 66 -27 87 -24 21 -26 26 -15 50 8 18 19 26 36
26 19 0 27 8 37 38 7 20 20 52 30 70 10 17 18 32 16 31 -1 0 -33 -23 -72 -50z"/>
<path d="M1175 1490 c-3 -11 -10 -20 -14 -20 -4 0 -37 -30 -72 -66 -35 -36
-71 -74 -80 -83 -9 -9 -22 -27 -28 -39 -7 -13 -15 -21 -18 -18 -6 6 24 56 43
71 11 8 10 13 -1 28 -13 19 -32 7 -20 -13 3 -5 1 -10 -4 -10 -6 0 -11 5 -11
10 0 14 -62 8 -79 -8 -8 -8 -17 -10 -20 -5 -11 14 -31 13 -31 -2 0 -26 41
-119 63 -143 l21 -22 -23 -47 c-31 -65 -38 -133 -16 -166 21 -33 82 -56 169
-65 l67 -7 24 -70 c13 -38 36 -92 51 -120 30 -54 152 -185 172 -185 22 0 14
47 -9 53 -19 5 -21 10 -15 54 4 26 14 74 23 105 12 46 13 61 3 73 -8 10 -11
46 -9 112 5 209 7 199 -50 328 -29 66 -66 153 -83 193 -34 81 -44 92 -53 62z
m-250 -200 c9 8 15 8 20 0 4 -6 2 -9 -4 -8 -5 2 -16 -5 -23 -15 -12 -16 -13
-15 -14 10 -1 16 1 22 3 15 4 -9 8 -10 18 -2z m12 -65 c-13 -13 -16 -13 -21 0
-3 8 0 14 7 12 7 -1 11 7 9 18 -2 18 -2 19 8 2 9 -13 8 -21 -3 -32z m-33 -1
c9 -24 2 -26 -12 -4 -7 11 -8 20 -3 20 5 0 12 -7 15 -16z"/>
<path d="M1026 1391 c-15 -17 -13 -31 5 -31 13 0 30 38 20 44 -4 3 -16 -3 -25
-13z m17 -6 c-3 -9 -8 -14 -10 -11 -3 3 -2 9 2 15 9 16 15 13 8 -4z"/>
<path d="M2090 1290 c-6 -11 -7 -20 -3 -20 4 0 1 -5 -7 -10 -11 -8 -6 -9 19
-5 30 5 33 4 21 -9 -7 -9 -16 -13 -21 -11 -4 3 -6 -3 -4 -14 5 -28 -20 -45
-58 -38 -28 4 -41 -1 -76 -29 -62 -48 -140 -75 -225 -75 -39 0 -83 4 -98 10
-16 6 -28 7 -28 2 0 -5 30 -21 68 -36 55 -22 88 -28 188 -32 142 -6 207 5 259
47 30 24 33 29 18 33 -14 4 -13 5 5 6 18 1 22 7 22 31 0 17 5 30 11 30 5 0 8
-4 5 -8 -3 -5 1 -9 8 -9 10 0 10 7 -3 28 -15 26 -16 27 -23 9 -10 -28 -23 -25
-26 5 -1 14 2 25 7 25 13 0 7 30 -8 39 -7 5 -12 11 -12 15 3 18 0 24 -14 30
-9 3 -19 -3 -25 -14z m31 -7 c10 -11 10 -14 2 -9 -8 4 -13 2 -13 -4 0 -6 -5
-8 -12 -4 -9 6 -9 9 0 12 7 2 10 8 6 13 -9 15 3 10 17 -8z m9 -63 c-8 -5 -10
-15 -6 -26 4 -10 4 -15 0 -11 -4 4 -14 1 -23 -6 -14 -11 -14 -10 -2 6 8 9 11
20 8 23 -3 3 2 14 11 25 10 12 18 15 21 8 2 -6 -2 -15 -9 -19z m-54 -93 c6 -9
4 -9 -8 1 -9 7 -20 12 -24 11 -18 -3 -25 1 -19 11 7 12 39 -3 51 -23z m77 21
c-2 -5 -10 -8 -18 -8 -8 0 -16 3 -18 8 -3 4 5 7 18 7 13 0 21 -3 18 -7z"/>
<path d="M2185 1130 c-3 -6 0 -13 9 -16 17 -6 12 -29 -13 -58 -12 -14 -13 -20
-4 -23 7 -2 27 -14 45 -27 56 -38 44 -75 -15 -45 -22 12 -22 12 -3 -9 10 -12
22 -20 26 -17 4 2 5 -7 2 -20 -5 -29 -18 -32 -42 -10 -15 14 -16 12 -12 -15 6
-44 -22 -39 -49 9 -33 59 -51 64 -208 51 -75 -6 -166 -8 -203 -6 -38 3 -68 4
-68 2 0 -21 61 -155 92 -204 35 -53 40 -67 30 -82 -9 -15 -6 -25 19 -57 17
-21 46 -68 65 -105 19 -38 40 -68 48 -68 7 0 46 16 86 37 145 72 265 224 306
387 14 55 25 77 56 108 22 22 36 44 32 50 -4 7 -3 8 4 4 6 -3 16 3 22 14 6 11
7 20 3 20 -4 0 -3 4 3 8 6 4 19 23 28 42 12 24 13 29 2 17 -11 -14 -15 -15
-20 -5 -3 7 -3 2 1 -12 5 -22 4 -23 -10 -12 -13 11 -15 10 -10 -10 3 -17 2
-19 -5 -9 -8 11 -10 11 -15 0 -4 -10 -6 -10 -6 -1 -1 6 -6 12 -11 12 -7 0 -7
-7 0 -21 7 -11 9 -23 6 -27 -3 -3 -6 0 -6 6 0 27 -19 9 -32 -30 -8 -27 -20
-42 -32 -44 -10 -1 -23 -9 -27 -16 -6 -9 -8 -6 -6 9 0 12 4 20 8 17 6 -3 5 26
-1 34 -2 1 -3 5 -4 10 -4 17 -46 76 -46 65 0 -7 -4 -13 -8 -13 -5 0 -7 13 -6
29 1 23 -2 28 -14 24 -10 -4 -13 -2 -8 5 4 7 5 12 2 12 -3 0 -8 -5 -11 -10z
m25 -78 c0 -13 -12 -22 -22 -16 -10 6 -1 24 13 24 5 0 9 -4 9 -8z m49 -30
c-13 -5 -24 -3 -24 6 0 4 -4 13 -9 21 -6 8 1 6 16 -5 15 -10 22 -20 17 -22z
m146 29 c3 -5 1 -12 -5 -16 -5 -3 -10 1 -10 9 0 18 6 21 15 7z m-130 -51 c3
-5 -1 -10 -10 -10 -9 0 -13 5 -10 10 3 6 8 10 10 10 2 0 7 -4 10 -10z m35 -62
c-12 -10 -26 -18 -31 -18 -15 0 25 36 40 36 9 1 6 -6 -9 -18z"/>
<path d="M2505 1006 c-20 -15 -17 -44 7 -59 12 -8 21 -7 32 2 36 30 -1 85 -39
57z"/>
<path d="M2367 894 c-14 -14 -7 -35 11 -32 9 2 17 10 17 17 0 16 -18 25 -28
15z"/>
<path d="M986 814 c-19 -18 -19 -20 -6 -45 12 -21 40 -25 58 -7 18 18 14 46
-7 58 -25 13 -27 13 -45 -6z"/>
<path d="M1047 652 c-35 -39 -9 -102 41 -102 28 0 62 34 62 60 0 27 -35 60
-63 60 -13 0 -31 -8 -40 -18z"/>
<path d="M1540 657 c0 -9 -5 -39 -11 -67 -9 -42 -14 -50 -34 -50 -17 0 -24 -7
-29 -31 -10 -53 -8 -56 57 -79 66 -24 287 -41 287 -23 0 5 -24 45 -52 89 -45
66 -57 79 -77 76 -16 -1 -36 8 -55 25 -80 73 -86 77 -86 60z"/>
</g>
</svg>
